<svg width="20" height="16" viewBox="0 0 20 16" fill="none" xmlns="http://www.w3.org/2000/svg">
<path d="M10.2499 8.18329C10.6946 7.7984 11.0512 7.32236 11.2956 6.78748C11.5401 6.25259 11.6666 5.67138 11.6666 5.08329C11.6666 3.97822 11.2276 2.91842 10.4462 2.13701C9.66479 1.35561 8.60499 0.916626 7.49992 0.916626C6.39485 0.916626 5.33504 1.35561 4.55364 2.13701C3.77224 2.91842 3.33325 3.97822 3.33325 5.08329C3.33325 5.67138 3.45975 6.25259 3.70419 6.78748C3.94863 7.32236 4.30527 7.7984 4.74992 8.18329C3.58337 8.71153 2.59364 9.56457 1.89907 10.6404C1.2045 11.7163 0.834478 12.9694 0.833252 14.25C0.833252 14.471 0.921049 14.6829 1.07733 14.8392C1.23361 14.9955 1.44557 15.0833 1.66659 15.0833C1.8876 15.0833 2.09956 14.9955 2.25584 14.8392C2.41212 14.6829 2.49992 14.471 2.49992 14.25C2.49992 12.9239 3.0267 11.6521 3.96438 10.7144C4.90207 9.77674 6.17384 9.24996 7.49992 9.24996C8.826 9.24996 10.0978 9.77674 11.0355 10.7144C11.9731 11.6521 12.4999 12.9239 12.4999 14.25C12.4999 14.471 12.5877 14.6829 12.744 14.8392C12.9003 14.9955 13.1122 15.0833 13.3333 15.0833C13.5543 15.0833 13.7662 14.9955 13.9225 14.8392C14.0788 14.6829 14.1666 14.471 14.1666 14.25C14.1654 12.9694 13.7953 11.7163 13.1008 10.6404C12.4062 9.56457 11.4165 8.71153 10.2499 8.18329ZM7.49992 7.58329C7.00547 7.58329 6.52212 7.43667 6.11099 7.16197C5.69987 6.88726 5.37944 6.49682 5.19022 6.04C5.001 5.58319 4.95149 5.08052 5.04796 4.59557C5.14442 4.11061 5.38252 3.66516 5.73215 3.31553C6.08178 2.96589 6.52724 2.72779 7.01219 2.63133C7.49715 2.53487 7.99981 2.58438 8.45663 2.77359C8.91344 2.96281 9.30389 3.28324 9.57859 3.69437C9.8533 4.10549 9.99992 4.58884 9.99992 5.08329C9.99992 5.74633 9.73653 6.38222 9.26769 6.85106C8.79884 7.3199 8.16296 7.58329 7.49992 7.58329ZM15.6166 7.84996C16.1499 7.2494 16.4983 6.50751 16.6198 5.71358C16.7412 4.91965 16.6307 4.10752 16.3014 3.37496C15.9721 2.6424 15.4381 2.02062 14.7636 1.58448C14.0892 1.14833 13.3031 0.916411 12.4999 0.916626C12.2789 0.916626 12.0669 1.00442 11.9107 1.1607C11.7544 1.31698 11.6666 1.52895 11.6666 1.74996C11.6666 1.97097 11.7544 2.18293 11.9107 2.33922C12.0669 2.4955 12.2789 2.58329 12.4999 2.58329C13.163 2.58329 13.7988 2.84669 14.2677 3.31553C14.7365 3.78437 14.9999 4.42025 14.9999 5.08329C14.9987 5.52099 14.8827 5.95071 14.6633 6.32948C14.4439 6.70824 14.129 7.02278 13.7499 7.24163C13.6264 7.31289 13.5232 7.41468 13.4502 7.53724C13.3773 7.65981 13.337 7.79904 13.3333 7.94163C13.3298 8.0831 13.3624 8.22312 13.428 8.34851C13.4936 8.47389 13.59 8.5805 13.7083 8.65829L14.0333 8.87496L14.1416 8.93329C15.1461 9.40973 15.9935 10.1633 16.5841 11.1052C17.1746 12.0472 17.4837 13.1382 17.4749 14.25C17.4749 14.471 17.5627 14.6829 17.719 14.8392C17.8753 14.9955 18.0872 15.0833 18.3083 15.0833C18.5293 15.0833 18.7412 14.9955 18.8975 14.8392C19.0538 14.6829 19.1416 14.471 19.1416 14.25C19.1484 12.9712 18.8281 11.7118 18.2111 10.5917C17.5942 9.47152 16.701 8.52772 15.6166 7.84996Z" fill="#224497"/>
</svg>
